<?xml version="1.0" encoding="UTF-8"?>
<!DOCTYPE svg PUBLIC "-//W3C//DTD SVG 1.1//EN" "http://www.w3.org/Graphics/SVG/1.1/DTD/svg11.dtd">
<!-- Creator: CorelDRAW -->
<svg xmlns="http://www.w3.org/2000/svg" xml:space="preserve" width="106.377mm" height="101.505mm" version="1.1" style="shape-rendering:geometricPrecision; text-rendering:geometricPrecision; image-rendering:optimizeQuality; fill-rule:evenodd; clip-rule:evenodd"
viewBox="0 0 10638 10150"
 xmlns:xlink="http://www.w3.org/1999/xlink">
 <defs>
  <style type="text/css">
   <![CDATA[
    .fil0 {fill:#FFE6D9;fill-rule:nonzero}
    .fil1 {fill:#FFB38D;fill-rule:nonzero}
    .fil2 {fill:black;fill-rule:nonzero}
   ]]>
  </style>
 </defs>
 <g id="Layer_x0020_1">
  <metadata id="CorelCorpID_0Corel-Layer"/>
  <g id="vc107433.ai">
   <g>
    <polygon class="fil0" points="0,695 9803,0 10638,9768 591,10150 "/>
    <polygon class="fil1" points="35,695 591,10116 1356,10116 "/>
    <polygon class="fil1" points="35,660 9768,69 104,1390 "/>
    <polygon class="fil1" points="9803,104 10603,9803 9004,139 "/>
    <polygon class="fil1" points="10568,9803 730,10081 10533,9108 "/>
    <path class="fil1" d="M4863 1631c805,-33 1559,0 2297,218 252,67 587,-17 772,268 -51,34 -84,67 -135,101 -972,-201 -2012,-520 -3052,-268 -637,17 -1224,117 -1777,369 -67,-17 -118,-34 -185,-51 34,-50 51,-117 84,-167 587,-302 1258,-336 1929,-420 17,-16 50,-33 67,-50z"/>
    <path class="fil1" d="M2683 2319c318,352 -118,888 -101,1324 -168,889 -453,1744 -537,2667 -67,16 -117,50 -167,67 -134,-436 50,-923 134,-1342 218,-872 369,-1761 604,-2633 16,-33 50,-50 67,-83z"/>
    <path class="fil1" d="M7881 2101c319,352 -84,922 -67,1358 -184,973 -369,1945 -570,2918 -168,436 -738,218 -1124,268 -620,-34 -1257,50 -1894,17 -403,-67 -805,84 -1225,50 -302,-34 -620,0 -922,-17 -50,-17 -201,-134 -218,-184 704,-118 1459,17 2180,-101 939,34 1895,-17 2851,-17 268,-184 151,-536 268,-771 218,-1140 419,-2264 637,-3387 17,-51 51,-84 84,-134z"/>
    <path class="fil1" d="M7311 6662c17,16 101,134 117,201 -385,335 -922,201 -1408,251 -67,0 -319,-16 -386,-16 -251,-34 -520,-17 -788,-17 -436,-50 -872,0 -1308,0 -285,-34 -570,33 -872,0 -252,-84 -604,134 -805,-151 34,-50 84,-84 117,-134 1174,117 2382,-17 3589,67 587,-17 1241,117 1744,-201z"/>
    <path class="fil1" d="M7915 2084c385,84 587,520 419,872 -235,1191 -486,2364 -721,3555 -67,0 -118,17 -185,17 -33,-537 185,-1040 252,-1560 151,-821 369,-1593 453,-2431 -101,-135 -470,-285 -218,-453z"/>
    <path class="fil1" d="M4360 6913c352,285 385,772 536,1174 -17,51 -17,118 -33,185 -51,-17 -118,-34 -168,-34 -101,-419 -268,-805 -419,-1191 17,-33 84,-134 84,-134z"/>
    <path class="fil1" d="M5064 6980c318,218 318,654 453,990 -34,50 -51,117 -67,168 -51,-17 -118,-51 -168,-68 -34,-352 -268,-654 -285,-1006 17,-33 50,-50 67,-84z"/>
    <path class="fil1" d="M5349 8054c17,16 101,134 117,201 -184,201 -570,252 -754,34 33,-51 50,-101 84,-135 184,34 402,67 553,-100z"/>
    <path class="fil1" d="M6472 8272c487,302 -117,821 -469,838 -436,151 -939,84 -1409,101 -402,0 -1190,-118 -1022,-688 33,-50 83,-100 117,-151 67,-16 117,-33 184,-50 218,201 -301,285 -16,470 536,285 1257,167 1844,134 251,-67 822,-134 687,-537 34,-50 51,-84 84,-117z"/>
    <path class="fil1" d="M4645 7852c16,0 117,118 134,185 -235,134 -486,218 -738,319 -50,-51 -84,-84 -117,-118 201,-251 469,-302 721,-386z"/>
    <path class="fil1" d="M5449 7819c353,17 788,117 956,453 -33,33 -84,67 -117,100 -252,-134 -486,-318 -771,-302 -51,-50 -101,-83 -151,-117 16,-33 83,-134 83,-134z"/>
    <path class="fil1" d="M5969 2419c436,67 923,-67 1308,117 67,520 -167,1040 -201,1577 -201,603 -184,1324 -453,1928 -1106,34 -2263,34 -3370,34 -151,-34 -336,-34 -503,-34 -520,17 -202,-570 -168,-805 84,-771 376,-1526 527,-2281 34,-50 67,-117 101,-168 50,17 100,17 167,34 -167,972 -510,1912 -644,2901 402,235 906,34 1358,101 772,-17 1627,17 2381,-34 216,-1074 487,-2045 554,-3085 -84,0 -369,-17 -436,-17 -1040,-50 -2063,84 -3119,67 -50,-16 -117,-150 -101,-201 855,-100 1744,-33 2599,-134z"/>
    <path class="fil1" d="M5910 3853c336,184 -209,411 -243,629 -234,218 -687,721 -838,234 -17,-16 -17,-50 -33,-67 -336,235 -604,604 -923,822 -234,17 -301,-218 -368,-369 -202,218 -336,470 -588,637 -67,-17 -117,-33 -184,-50 168,-319 486,-704 738,-973 268,-100 260,268 394,403 285,-319 603,-537 922,-839 251,-100 226,185 327,302 335,-201 461,-545 796,-729z"/>
    <path class="fil1" d="M6372 3442c318,118 83,570 16,805 -301,101 -570,-302 -721,-520 135,-285 487,-167 705,-285z"/>
    <path class="fil1" d="M5416 2620c302,202 -67,587 17,889 -34,235 -84,453 -118,688 -67,0 -117,16 -184,16 -17,-519 67,-1056 218,-1542 17,-17 50,-34 67,-51z"/>
    <path class="fil1" d="M3957 2654c285,184 -33,587 -33,855 -151,336 -101,738 -252,1090 -50,-17 -117,-33 -167,-50 16,-621 201,-1174 352,-1761 33,-34 100,-134 100,-134z"/>
    <path class="fil1" d="M4108 3392c335,50 721,-118 1006,134 -50,34 -251,117 -318,117 -587,-33 -1174,34 -1778,34 -285,-134 252,-352 302,-252 268,0 537,17 788,-33z"/>
    <path class="fil1" d="M5818 4666c319,101 721,-134 973,117 -50,51 -84,84 -118,135 -251,0 -486,0 -737,0 -168,83 -252,-185 -118,-252z"/>
    <path class="fil1" d="M4930 5169c251,185 50,604 -51,838 -50,0 -117,-16 -167,-16 50,-269 33,-604 218,-822z"/>
    <path class="fil1" d="M5837 7218c104,191 -279,244 -348,383 -52,17 -87,52 -122,69 -17,-17 -34,-52 -52,-69 174,-139 348,-227 522,-383z"/>
    <path class="fil1" d="M6271 7218c0,0 52,52 69,87 -330,174 -608,417 -938,556 -17,-17 -17,-52 -35,-69 296,-191 609,-365 904,-574z"/>
    <path class="fil1" d="M6671 7305c0,0 35,52 52,87 -330,209 -678,348 -991,591 -52,0 -104,17 -156,17 313,-347 747,-399 1095,-695z"/>
    <path class="fil1" d="M6949 7374c87,209 -313,279 -400,401 -226,17 -382,399 -626,295 331,-278 696,-417 1026,-696z"/>
    <path class="fil1" d="M7158 7548c0,0 34,53 52,88 -313,208 -643,364 -956,573 -35,-18 -70,-18 -104,-35 330,-243 677,-399 1008,-626z"/>
    <path class="fil1" d="M7523 7705c0,0 52,52 69,87 -365,156 -712,382 -1078,573 -17,-17 -34,-52 -52,-69 348,-244 696,-400 1061,-591z"/>
    <path class="fil1" d="M8322 7792c0,0 35,52 52,87 -678,451 -1355,799 -2051,1199 -69,17 -122,17 -173,35 469,-452 1147,-609 1686,-1008 139,-191 330,-174 486,-313z"/>
    <path class="fil1" d="M7748 7861c105,226 -313,278 -417,383 -260,121 -504,330 -799,347 226,-243 573,-278 852,-486 104,-87 295,-105 364,-244z"/>
    <path class="fil1" d="M6062 7201c278,347 313,782 539,1147 0,17 -17,52 -17,69 -313,-295 -330,-730 -522,-1060 -17,-52 0,-156 0,-156z"/>
    <path class="fil1" d="M5750 7357c226,191 191,522 399,730 -17,18 -52,35 -69,52 -191,-208 -226,-452 -348,-677 0,-35 18,-70 18,-105z"/>
    <path class="fil1" d="M6480 7357c243,469 434,939 504,1460 -35,18 -52,18 -87,35 -52,-504 -278,-938 -435,-1408 0,-35 18,-52 18,-87z"/>
    <path class="fil1" d="M6949 7462c191,434 382,868 486,1338 -34,17 -51,17 -86,35 -70,-470 -365,-870 -435,-1339 18,-17 18,-17 35,-34z"/>
    <path class="fil1" d="M7401 7513c226,348 261,748 400,1130 -35,0 -70,0 -105,0 -121,-330 -173,-678 -312,-990 0,-52 17,-87 17,-140z"/>
    <path class="fil1" d="M7887 7705c88,209 227,452 174,695 -139,-191 -156,-435 -208,-660 17,-18 17,-18 34,-35z"/>
    <path class="fil1" d="M2951 2334c52,86 -2,180 -87,264 -88,86 -207,161 -278,205 18,-191 278,-278 365,-469z"/>
    <path class="fil1" d="M3125 2560c69,209 -313,365 -417,556 -35,35 -70,70 -104,105 -87,-209 278,-348 382,-522 35,-35 122,-122 139,-139z"/>
    <path class="fil1" d="M3143 2890c104,174 -244,296 -331,435 -104,104 -208,243 -330,330 52,-313 452,-522 661,-765z"/>
    <path class="fil1" d="M3021 3342c104,261 -348,365 -417,591 -52,52 -174,226 -209,261 -52,-348 452,-557 626,-852z"/>
    <path class="fil1" d="M2899 3864c105,243 -278,417 -382,625 -52,52 -191,191 -226,226 35,-348 469,-538 608,-851z"/>
    <path class="fil1" d="M2812 4402c87,226 -313,400 -434,574 -35,35 -122,139 -139,174 -35,-18 -52,-35 -87,-52 174,-261 469,-452 660,-696z"/>
    <path class="fil1" d="M2795 4767c121,244 -330,348 -383,574 -173,35 -86,330 -295,243 122,-313 487,-521 678,-817z"/>
    <path class="fil1" d="M2604 5393c87,226 -313,400 -400,626 -35,35 -122,174 -139,191 -17,-17 -52,-52 -70,-70 174,-260 400,-504 609,-747z"/>
    <path class="fil1" d="M2673 5793c104,313 -434,434 -469,730 -17,17 -35,52 -52,69 -35,-17 -52,-35 -87,-52 191,-261 434,-469 608,-747z"/>
    <path class="fil1" d="M2934 5984c87,226 -330,382 -365,591 -17,17 -35,52 -52,70 -35,-18 -52,-35 -87,-53 139,-208 295,-417 504,-608z"/>
    <path class="fil1" d="M3229 6019c122,191 -243,399 -365,538 -34,0 -69,0 -104,0 156,-191 365,-330 469,-538z"/>
    <path class="fil1" d="M3542 6123c44,44 27,126 -19,200 -64,104 -185,191 -276,130 121,-104 191,-226 295,-330z"/>
    <path class="fil1" d="M2708 2560c174,156 313,365 417,573 -35,0 -52,0 -87,0 -104,-191 -365,-364 -330,-573z"/>
    <path class="fil1" d="M2534 3012c174,209 278,434 504,625 -17,18 -52,35 -69,53 -209,-157 -331,-383 -470,-574 18,-34 18,-69 35,-104z"/>
    <path class="fil1" d="M2430 3551c208,225 365,452 539,677 -35,0 -70,0 -105,0 -173,-173 -295,-382 -452,-556 0,-52 18,-87 18,-121z"/>
    <path class="fil1" d="M2395 4037c191,209 313,418 504,626 -17,17 -52,35 -69,52 -139,-226 -487,-399 -435,-678z"/>
    <path class="fil1" d="M2239 4680c139,244 469,418 538,696 -243,-105 -417,-400 -590,-609 17,-34 34,-52 52,-87z"/>
    <path class="fil1" d="M2082 5323c244,227 487,470 748,661 -209,174 -348,-243 -539,-313 -70,-104 -313,-226 -209,-348z"/>
    <path class="fil1" d="M1995 5845c296,191 609,469 852,695 -17,17 -52,35 -70,52 -278,-226 -538,-434 -799,-678 0,-34 17,-52 17,-69z"/>
    <path class="fil1" d="M4307 8139c104,191 -243,348 -226,574 -17,52 -17,121 -35,173 -208,-243 122,-521 261,-747z"/>
    <path class="fil1" d="M4533 8191c87,244 -295,452 -226,730 -35,18 -52,18 -87,35 -35,-295 139,-521 313,-765z"/>
    <path class="fil1" d="M4064 8209c156,121 -226,260 -139,399 -35,35 -70,53 -105,87 0,-191 87,-347 244,-486z"/>
    <path class="fil1" d="M4794 8243c69,192 -139,383 -157,591 -17,35 -17,52 -35,87 -121,-226 53,-486 192,-678z"/>
    <path class="fil1" d="M4967 8348c50,108 -2,222 -52,338 -39,89 -77,180 -69,270 -174,-174 35,-434 121,-608z"/>
    <path class="fil1" d="M5159 8556c139,122 -122,261 -18,418 -35,0 -52,0 -87,0 -52,-157 0,-296 105,-418z"/>
    <path class="fil1" d="M5454 8678c64,40 47,132 15,187 -37,64 -95,78 -67,-100 17,-35 35,-52 52,-87z"/>
    <path class="fil1" d="M4159 8139c191,243 296,643 643,765 0,35 18,52 18,87 -417,-35 -522,-522 -713,-800 17,-17 35,-34 52,-52z"/>
    <path class="fil1" d="M4524 8113c174,295 383,643 748,730 34,35 52,70 87,104 -383,-17 -817,-417 -852,-817l17 -17z"/>
    <path class="fil1" d="M3942 8261c139,226 330,434 417,678 -243,-87 -313,-383 -452,-574 18,-35 18,-69 35,-104z"/>
    <path class="fil1" d="M8270 2577c87,209 -313,278 -400,400 -52,-18 -87,-18 -139,-35 174,-122 365,-226 539,-365z"/>
    <path class="fil1" d="M8165 3012c105,191 -260,278 -347,434 -35,18 -87,52 -122,70 -17,-261 348,-313 469,-504z"/>
    <path class="fil1" d="M8114 3359c139,191 -261,296 -331,435 -52,34 -174,52 -209,34 174,-173 383,-278 540,-469z"/>
    <path class="fil1" d="M8061 3724c87,191 -260,278 -347,435 -35,34 -174,121 -209,139 52,-244 382,-383 556,-574z"/>
    <path class="fil1" d="M8026 4159c105,261 -364,365 -452,608 -51,17 -86,52 -121,70 35,-296 400,-435 573,-678z"/>
    <path class="fil1" d="M7940 4663c104,174 -261,313 -331,469 -52,52 -226,156 -278,174 157,-226 400,-452 609,-643z"/>
    <path class="fil1" d="M7783 5323c104,243 -295,417 -400,643 -34,35 -139,157 -173,174 17,-330 434,-521 573,-817z"/>
    <path class="fil1" d="M7896 2525c87,226 226,434 330,643 -35,0 -69,0 -104,0 -87,-209 -347,-400 -226,-643z"/>
    <path class="fil1" d="M7775 3012c173,225 260,486 399,730 -17,17 -34,52 -52,69 -104,-261 -417,-504 -347,-799z"/>
    <path class="fil1" d="M7688 3550c139,261 226,522 347,782 -35,18 -52,18 -87,35 -69,-278 -330,-539 -260,-817z"/>
    <path class="fil1" d="M7636 4176c173,209 208,452 295,678 -35,0 -70,0 -104,0 -18,-243 -296,-434 -191,-678z"/>
    <path class="fil1" d="M7497 4680c139,174 173,383 278,574 -18,17 -53,34 -70,52 -69,-191 -296,-417 -208,-626z"/>
    <path class="fil1" d="M7340 5202c157,173 174,382 261,591 -18,17 -53,34 -70,52 -69,-209 -278,-435 -191,-643z"/>
    <path class="fil2" d="M4650 1453c805,-33 1559,0 2297,218 252,67 587,-17 771,268 -50,34 -84,67 -134,101 -972,-201 -2012,-520 -3052,-268 -637,16 -1224,117 -1777,369 -67,-17 -118,-34 -185,-51 34,-50 51,-117 84,-167 587,-302 1258,-336 1929,-420 17,-16 50,-33 67,-50z"/>
    <path class="fil2" d="M2470 2141c318,352 -118,888 -101,1324 -167,889 -453,1744 -536,2667 -67,16 -118,50 -168,67 -134,-436 50,-923 134,-1342 218,-872 369,-1761 604,-2633 16,-33 50,-50 67,-83z"/>
    <path class="fil2" d="M7668 1923c319,352 -84,922 -67,1358 -185,972 -369,1945 -570,2918 -168,436 -738,218 -1124,268 -620,-34 -1257,50 -1894,17 -403,-67 -805,83 -1225,50 -301,-34 -620,0 -922,-17 -50,-17 -201,-134 -218,-184 704,-118 1459,17 2180,-101 939,34 1895,-17 2851,-17 268,-184 151,-536 268,-771 218,-1140 419,-2264 637,-3387 17,-51 50,-84 84,-134z"/>
    <path class="fil2" d="M7098 6484c17,16 101,134 117,201 -385,335 -922,201 -1408,251 -67,0 -319,-16 -386,-16 -251,-34 -520,-17 -788,-17 -436,-50 -872,0 -1308,0 -285,-34 -570,33 -872,0 -251,-84 -604,134 -805,-151 34,-50 84,-84 118,-134 1173,117 2381,-17 3588,67 587,-17 1241,117 1744,-201z"/>
    <path class="fil2" d="M7702 1906c385,84 587,520 419,872 -235,1190 -487,2364 -721,3555 -67,0 -118,17 -185,17 -33,-537 185,-1040 252,-1560 151,-822 369,-1593 453,-2431 -101,-135 -470,-286 -218,-453z"/>
    <path class="fil2" d="M4147 6735c352,285 385,771 536,1174 -16,50 -16,117 -33,184 -50,-17 -118,-33 -168,-33 -100,-419 -268,-805 -419,-1191 17,-33 84,-134 84,-134z"/>
    <path class="fil2" d="M4851 6802c319,218 319,654 453,989 -34,51 -51,118 -67,168 -51,-17 -118,-50 -168,-67 -34,-352 -268,-654 -285,-1006 17,-33 50,-50 67,-84z"/>
    <path class="fil2" d="M5136 7875c17,17 101,134 117,201 -184,202 -570,252 -754,34 33,-50 50,-101 84,-134 184,33 402,67 553,-101z"/>
    <path class="fil2" d="M6259 8093c487,302 -117,822 -469,839 -436,151 -939,84 -1408,101 -403,0 -1191,-118 -1024,-688 34,-50 84,-101 118,-151 67,-17 117,-34 184,-50 218,201 -302,285 -17,469 537,285 1258,168 1845,134 252,-67 822,-134 688,-536 33,-51 50,-84 83,-118z"/>
    <path class="fil2" d="M4432 7674c17,0 117,117 134,185 -235,134 -486,217 -738,318 -50,-50 -84,-84 -117,-117 201,-252 469,-302 721,-386z"/>
    <path class="fil2" d="M5237 7641c352,16 788,117 955,452 -33,34 -84,67 -117,101 -252,-134 -486,-319 -771,-302 -51,-50 -101,-84 -151,-117 17,-34 84,-134 84,-134z"/>
    <path class="fil2" d="M5756 2241c436,67 923,-67 1308,117 67,520 -167,1040 -201,1577 -201,603 -184,1324 -453,1928 -1106,33 -2263,33 -3370,33 -151,-33 -336,-33 -503,-33 -520,17 -202,-570 -168,-805 84,-771 376,-1527 527,-2281 33,-50 67,-117 101,-168 50,17 100,17 167,34 -167,972 -510,1912 -644,2901 402,235 905,34 1358,101 772,-17 1627,17 2381,-34 216,-1074 487,-2045 554,-3085 -84,0 -369,-17 -436,-17 -1040,-50 -2063,84 -3119,67 -51,-17 -118,-151 -101,-201 856,-101 1744,-34 2599,-134z"/>
    <path class="fil2" d="M5697 3675c336,184 -209,411 -242,629 -235,218 -688,721 -839,234 -17,-16 -17,-50 -33,-67 -336,235 -604,604 -923,822 -235,17 -302,-218 -369,-369 -201,218 -335,469 -587,637 -67,-17 -117,-33 -184,-50 168,-319 486,-705 738,-973 268,-100 260,268 394,403 285,-319 604,-537 922,-839 252,-100 226,185 327,302 335,-201 461,-545 796,-729z"/>
    <path class="fil2" d="M6159 3264c318,117 84,570 17,805 -302,100 -571,-302 -721,-520 134,-285 486,-168 704,-285z"/>
    <path class="fil2" d="M5203 2442c302,201 -67,587 17,889 -34,235 -84,453 -118,687 -67,0 -117,17 -184,17 -17,-520 67,-1056 218,-1543 17,-16 50,-33 67,-50z"/>
    <path class="fil2" d="M3744 2476c285,184 -33,586 -33,855 -151,335 -101,738 -252,1090 -50,-17 -117,-34 -168,-50 17,-621 202,-1174 352,-1761 34,-34 101,-134 101,-134z"/>
    <path class="fil2" d="M3895 3213c336,51 721,-117 1006,135 -50,33 -251,117 -318,117 -587,-34 -1174,33 -1778,33 -285,-134 251,-352 302,-251 268,0 536,17 788,-34z"/>
    <path class="fil2" d="M5605 4488c319,101 721,-134 973,117 -50,51 -84,84 -117,135 -252,0 -487,0 -738,0 -168,83 -252,-185 -118,-252z"/>
    <path class="fil2" d="M4717 4991c251,185 50,604 -50,838 -51,0 -118,-16 -168,-16 50,-269 33,-604 218,-822z"/>
    <path class="fil2" d="M5624 7040c104,191 -278,243 -348,382 -52,18 -87,53 -122,70 -17,-17 -34,-52 -52,-70 174,-139 348,-226 522,-382z"/>
    <path class="fil2" d="M6058 7040c0,0 52,52 70,87 -330,174 -609,417 -939,556 -17,-17 -17,-52 -35,-69 296,-192 609,-365 904,-574z"/>
    <path class="fil2" d="M6458 7127c0,0 35,52 52,87 -330,208 -678,347 -991,591 -52,0 -104,17 -156,17 313,-347 747,-400 1095,-695z"/>
    <path class="fil2" d="M6736 7196c87,209 -313,279 -400,400 -226,18 -382,400 -626,296 331,-278 696,-417 1026,-696z"/>
    <path class="fil2" d="M6944 7370c0,0 35,52 53,87 -313,209 -643,365 -956,574 -35,-18 -70,-18 -104,-35 330,-243 677,-400 1007,-626z"/>
    <path class="fil2" d="M7310 7527c0,0 52,52 69,87 -365,156 -713,382 -1078,573 -17,-17 -34,-52 -52,-69 348,-244 695,-400 1061,-591z"/>
    <path class="fil2" d="M8109 7614c0,0 35,52 52,86 -678,452 -1356,800 -2051,1200 -69,17 -121,17 -173,34 469,-451 1147,-608 1685,-1007 139,-192 331,-174 487,-313z"/>
    <path class="fil2" d="M7536 7683c104,226 -313,278 -418,383 -260,121 -504,330 -799,347 226,-243 574,-278 852,-486 104,-88 295,-105 365,-244z"/>
    <path class="fil2" d="M5849 7022c279,348 313,783 539,1148 0,17 -17,52 -17,69 -313,-295 -330,-730 -522,-1060 -17,-52 0,-157 0,-157z"/>
    <path class="fil2" d="M5537 7179c226,191 191,521 400,730 -18,17 -53,35 -70,52 -191,-208 -226,-452 -348,-678 0,-34 18,-69 18,-104z"/>
    <path class="fil2" d="M6267 7179c243,469 434,938 504,1460 -35,17 -52,17 -87,35 -52,-504 -278,-939 -435,-1408 0,-35 18,-52 18,-87z"/>
    <path class="fil2" d="M6736 7283c191,435 382,869 487,1339 -35,17 -52,17 -87,34 -70,-469 -365,-869 -435,-1338 18,-17 18,-17 35,-35z"/>
    <path class="fil2" d="M7188 7335c226,348 261,748 400,1130 -35,0 -70,0 -105,0 -121,-330 -173,-678 -312,-991 0,-52 17,-86 17,-139z"/>
    <path class="fil2" d="M7675 7527c86,208 225,451 173,695 -139,-191 -156,-435 -208,-661 17,-17 17,-17 35,-34z"/>
    <path class="fil2" d="M2738 2156c52,86 -3,180 -88,264 -87,86 -206,161 -277,205 18,-191 278,-278 365,-469z"/>
    <path class="fil2" d="M2912 2382c70,208 -313,365 -417,556 -35,35 -70,69 -104,104 -87,-208 278,-347 382,-521 35,-35 122,-122 139,-139z"/>
    <path class="fil2" d="M2929 2712c105,174 -243,295 -330,434 -104,105 -208,244 -330,331 52,-313 452,-522 660,-765z"/>
    <path class="fil2" d="M2808 3164c104,261 -348,365 -417,591 -52,52 -174,226 -209,261 -52,-348 452,-557 626,-852z"/>
    <path class="fil2" d="M2686 3685c104,244 -278,417 -382,626 -52,52 -192,191 -226,226 34,-348 469,-539 608,-852z"/>
    <path class="fil2" d="M2599 4224c87,226 -313,400 -434,574 -35,34 -122,139 -139,173 -35,-17 -53,-34 -87,-52 173,-260 469,-451 660,-695z"/>
    <path class="fil2" d="M2582 4589c122,243 -330,348 -382,574 -174,34 -88,330 -296,243 122,-313 487,-521 678,-817z"/>
    <path class="fil2" d="M2391 5215c87,226 -313,399 -400,626 -35,34 -122,174 -139,191 -18,-17 -52,-52 -70,-70 174,-260 400,-504 609,-747z"/>
    <path class="fil2" d="M2460 5614c104,313 -434,435 -469,731 -18,17 -35,52 -52,69 -35,-17 -52,-35 -87,-52 191,-261 434,-469 608,-748z"/>
    <path class="fil2" d="M2721 5806c87,226 -330,382 -365,591 -17,17 -35,52 -52,69 -35,-17 -52,-35 -87,-52 139,-208 295,-417 504,-608z"/>
    <path class="fil2" d="M3016 5841c122,191 -243,399 -365,538 -34,0 -69,0 -104,0 157,-191 365,-330 469,-538z"/>
    <path class="fil2" d="M3329 5945c44,43 27,126 -19,200 -64,104 -185,191 -276,130 121,-104 191,-226 295,-330z"/>
    <path class="fil2" d="M2495 2382c174,156 313,365 417,573 -35,0 -52,0 -87,0 -104,-191 -365,-365 -330,-573z"/>
    <path class="fil2" d="M2321 2834c174,208 278,434 504,625 -17,18 -52,35 -69,53 -209,-157 -331,-383 -470,-574 18,-35 18,-70 35,-104z"/>
    <path class="fil2" d="M2217 3373c208,225 365,451 539,677 -35,0 -70,0 -105,0 -173,-173 -295,-382 -451,-556 0,-52 17,-87 17,-121z"/>
    <path class="fil2" d="M2182 3859c191,209 313,417 504,626 -17,17 -52,34 -69,52 -139,-226 -487,-400 -435,-678z"/>
    <path class="fil2" d="M2026 4502c139,244 469,417 538,695 -243,-104 -417,-399 -591,-608 18,-35 35,-52 53,-87z"/>
    <path class="fil2" d="M1869 5145c243,226 487,469 748,661 -209,174 -348,-243 -539,-313 -70,-104 -313,-226 -209,-348z"/>
    <path class="fil2" d="M1782 5667c296,191 609,469 852,695 -17,17 -52,35 -70,52 -278,-226 -538,-434 -799,-678 0,-34 17,-52 17,-69z"/>
    <path class="fil2" d="M4094 7961c104,191 -243,348 -226,573 -17,53 -17,122 -35,174 -208,-243 122,-521 261,-747z"/>
    <path class="fil2" d="M4320 8013c87,243 -296,452 -226,730 -35,18 -52,18 -87,35 -35,-295 139,-522 313,-765z"/>
    <path class="fil2" d="M3851 8031c156,121 -226,260 -139,399 -35,35 -70,53 -104,87 0,-191 86,-347 243,-486z"/>
    <path class="fil2" d="M4581 8065c69,191 -140,383 -157,591 -17,35 -17,52 -34,87 -122,-226 51,-487 191,-678z"/>
    <path class="fil2" d="M4754 8170c50,108 -1,222 -52,338 -39,89 -77,179 -69,270 -174,-174 35,-434 121,-608z"/>
    <path class="fil2" d="M4946 8378c139,122 -122,261 -18,417 -35,0 -52,0 -86,0 -53,-156 0,-295 104,-417z"/>
    <path class="fil2" d="M5241 8500c64,40 47,132 15,186 -37,65 -95,79 -67,-99 17,-35 35,-53 52,-87z"/>
    <path class="fil2" d="M3946 7961c191,243 296,643 643,765 0,35 18,52 18,87 -417,-35 -522,-522 -713,-800 18,-17 35,-35 52,-52z"/>
    <path class="fil2" d="M4311 7935c174,295 383,643 748,730 34,34 52,69 87,104 -383,-17 -817,-417 -852,-817l17 -17z"/>
    <path class="fil2" d="M3729 8082c139,227 330,435 417,679 -243,-87 -313,-383 -452,-574 18,-35 18,-70 35,-105z"/>
    <path class="fil2" d="M8057 2399c87,208 -313,278 -400,400 -52,-18 -87,-18 -139,-35 174,-122 365,-226 539,-365z"/>
    <path class="fil2" d="M7953 2834c104,191 -261,278 -348,434 -35,17 -87,52 -122,69 -17,-260 348,-312 470,-503z"/>
    <path class="fil2" d="M7900 3181c139,191 -260,296 -330,435 -52,34 -174,52 -208,34 173,-173 382,-278 538,-469z"/>
    <path class="fil2" d="M7848 3546c87,191 -260,278 -347,434 -35,35 -174,122 -209,140 52,-244 383,-383 556,-574z"/>
    <path class="fil2" d="M7814 3980c104,261 -365,366 -452,609 -52,17 -87,52 -122,69 35,-295 400,-434 574,-678z"/>
    <path class="fil2" d="M7727 4485c104,173 -261,312 -331,469 -52,52 -225,156 -278,174 157,-226 400,-452 609,-643z"/>
    <path class="fil2" d="M7570 5145c105,243 -295,417 -399,643 -35,35 -139,157 -174,174 17,-330 434,-521 573,-817z"/>
    <path class="fil2" d="M7683 2347c87,226 226,434 330,643 -34,0 -69,0 -104,0 -87,-209 -348,-400 -226,-643z"/>
    <path class="fil2" d="M7561 2834c174,225 261,486 400,729 -17,18 -34,53 -52,70 -104,-261 -417,-504 -348,-799z"/>
    <path class="fil2" d="M7475 3372c139,261 225,522 347,782 -34,18 -52,18 -87,35 -69,-278 -330,-539 -260,-817z"/>
    <path class="fil2" d="M7422 3998c174,209 209,452 296,678 -35,0 -69,0 -104,0 -18,-244 -296,-435 -192,-678z"/>
    <path class="fil2" d="M7283 4502c139,174 174,382 278,573 -17,18 -52,35 -69,53 -70,-192 -295,-417 -209,-626z"/>
    <path class="fil2" d="M7127 5024c156,173 174,382 261,590 -18,18 -52,35 -70,53 -69,-209 -278,-435 -191,-643z"/>
   </g>
  </g>
 </g>
</svg>
