<?xml version="1.0" encoding="UTF-8"?>
<!DOCTYPE svg PUBLIC "-//W3C//DTD SVG 1.1//EN" "http://www.w3.org/Graphics/SVG/1.1/DTD/svg11.dtd">
<!-- Creator: CorelDRAW -->
<svg xmlns="http://www.w3.org/2000/svg" xml:space="preserve" width="105.305mm" height="109.15mm" version="1.1" style="shape-rendering:geometricPrecision; text-rendering:geometricPrecision; image-rendering:optimizeQuality; fill-rule:evenodd; clip-rule:evenodd"
viewBox="0 0 10530 10915"
 xmlns:xlink="http://www.w3.org/1999/xlink">
 <defs>
  <style type="text/css">
   <![CDATA[
    .fil1 {fill:#F3F3D7;fill-rule:nonzero}
    .fil2 {fill:#E9E9B9;fill-rule:nonzero}
    .fil5 {fill:#D99A67;fill-rule:nonzero}
    .fil7 {fill:#F89292;fill-rule:nonzero}
    .fil3 {fill:#EEF0FF;fill-rule:nonzero}
    .fil4 {fill:#C0CAFF;fill-rule:nonzero}
    .fil6 {fill:#2DEE83;fill-rule:nonzero}
    .fil8 {fill:black;fill-rule:nonzero}
    .fil0 {fill:#CCCCCC;fill-rule:nonzero}
    .fil9 {fill:white;fill-rule:nonzero}
   ]]>
  </style>
 </defs>
 <g id="Layer_x0020_1">
  <metadata id="CorelCorpID_0Corel-Layer"/>
  <g id="vc104673.ai">
   <g>
    <path class="fil0" d="M6308 207c-153,74 -240,268 -334,271 -94,2 -421,-19 -547,78 -125,97 -2,342 -97,407 -93,65 -188,254 -250,194 -62,-61 -312,-7 -406,42 -94,49 -126,236 -127,298 0,62 -188,284 -266,286 -78,3 -544,-172 -670,-75 -125,96 -266,223 -235,300 31,76 341,363 294,457 -47,94 -79,204 -173,252 -93,49 -16,93 -32,202 -16,109 248,212 169,368 -78,157 -312,270 -312,332 0,62 247,289 247,351 0,62 45,418 -80,451 -124,33 -512,9 -512,9 0,0 -48,419 -79,481 -32,63 -157,467 -250,406 -92,-60 -371,-226 -371,-226 0,0 -1,263 -94,311 -93,47 -604,-191 -697,-128 -93,63 -109,340 -186,419 -78,78 -357,143 -434,160 -78,16 -449,298 -356,481 93,183 294,196 216,289 -77,93 -263,249 -293,326 -32,77 447,380 354,473 -92,93 -262,448 -247,540 16,92 324,597 494,519 169,-78 308,-95 354,13 46,107 -77,447 30,492 108,46 570,167 570,167 0,0 246,-17 246,91 0,109 -108,201 15,278 122,77 630,230 691,168 62,-63 186,-264 248,-265 61,0 215,170 323,108 108,-63 205,-962 267,-963 61,0 246,-48 276,107 30,155 76,248 199,232 124,-17 201,-48 293,14 92,61 752,299 714,346 -39,47 -241,242 -172,281 69,38 169,116 238,123 69,8 245,124 190,210 -54,86 -73,553 42,569 115,15 262,-102 339,-79 77,23 106,148 106,242 -2,93 135,249 244,187 108,-63 262,-141 292,-71 30,71 604,242 682,164 78,-78 -44,-235 18,-258 62,-24 307,39 353,23 47,-16 95,-204 103,-243 8,-39 361,-620 445,-581 84,38 105,195 267,187 162,-8 480,-245 465,-308 -14,-62 -19,-274 28,-322 46,-47 321,-450 367,-450 47,-1 269,117 308,69 39,-47 188,-245 151,-332 -38,-86 101,-639 194,-632 93,7 372,-97 473,-177 102,-80 -5,-189 -34,-276 -30,-87 152,-365 100,-482 -52,-119 -186,33 -263,2 -77,-31 -240,-447 -318,-454 -77,-7 -403,92 -457,77 -53,-16 -21,-173 -65,-283 -45,-110 -163,-6 -286,11 -124,18 -341,4 -440,-57 -100,-62 254,-251 232,-360 -21,-110 -51,-204 -50,-251 0,-48 125,-73 187,-81 61,-9 331,89 509,79 178,-11 -17,-201 16,-296 32,-95 218,-97 280,-114 62,-17 663,-295 602,-365 -61,-70 -73,-282 -112,-321 -37,-39 198,-248 215,-359 18,-111 -183,-170 -237,-217 -53,-46 -128,-234 -150,-328 -22,-94 470,-254 402,-411 -67,-156 -146,-123 -199,-193 -53,-69 156,-524 94,-546 -62,-22 -213,-27 -321,-72 -108,-44 -168,-205 -143,-323 25,-119 118,-386 25,-439 -92,-52 -289,79 -304,32 -15,-47 -122,-171 -160,-248 -38,-78 -130,-713 -232,-694 -102,18 -275,180 -352,111 -77,-68 -161,-262 -254,-299 -93,-36 -267,220 -338,213 -69,-5 -123,-87 -145,-180 -23,-93 -132,-467 -225,-488 -93,-20 -263,169 -302,139 -38,-31 41,-174 -44,-203 -86,-29 -338,151 -415,130 -78,-21 -330,205 -400,144 -70,-60 -83,-317 -168,-323 -86,-5 -165,114 -220,100 -54,-14 -113,-39 -113,-39z"/>
    <path class="fil1" d="M5878 61c-153,74 -241,268 -334,271 -94,2 -422,-19 -548,78 -125,97 -2,342 -96,407 -94,65 -189,254 -251,194 -62,-61 -312,-8 -406,42 -94,49 -126,236 -126,298 -1,62 -189,284 -267,286 -78,3 -544,-172 -670,-75 -125,96 -265,223 -235,300 31,76 341,363 294,457 -47,94 -79,204 -172,252 -94,49 -17,93 -32,202 -17,109 247,212 169,368 -79,157 -312,270 -313,332 0,62 248,289 247,351 0,62 45,418 -80,451 -124,33 -512,9 -512,9 0,0 -48,419 -79,481 -31,63 -157,467 -250,406 -92,-60 -371,-226 -371,-226 0,0 -1,263 -94,311 -93,47 -603,-191 -696,-128 -94,63 -109,340 -187,419 -78,78 -356,143 -434,160 -77,16 -449,298 -356,481 93,183 294,196 216,289 -77,93 -263,249 -294,326 -30,77 448,380 356,473 -93,93 -263,448 -247,540 15,92 323,597 493,519 170,-78 309,-95 354,13 47,107 -77,447 30,492 108,46 570,167 570,167 0,0 247,-17 246,91 0,109 -108,201 15,278 123,77 630,230 692,168 62,-63 186,-264 247,-265 62,0 215,170 323,108 108,-63 205,-962 267,-963 62,0 247,-48 276,107 30,155 76,248 200,231 123,-16 200,-47 292,14 92,62 753,300 714,347 -39,47 -240,242 -172,280 70,39 169,117 238,124 69,8 245,124 191,210 -55,86 -74,553 41,569 116,15 262,-102 339,-79 77,23 106,148 106,241 -1,94 136,250 244,187 108,-62 262,-140 292,-70 30,70 605,242 682,164 78,-78 -43,-235 18,-258 62,-24 307,39 353,23 47,-16 95,-204 103,-243 8,-39 361,-620 445,-581 84,38 105,195 267,187 162,-8 480,-245 466,-308 -15,-63 -20,-275 27,-322 47,-47 322,-450 368,-450 46,-1 268,116 307,69 39,-47 188,-245 151,-332 -37,-86 102,-639 194,-632 93,7 372,-97 473,-177 102,-80 -4,-189 -34,-276 -29,-87 152,-365 100,-483 -52,-118 -186,34 -262,3 -77,-31 -241,-447 -318,-454 -78,-7 -403,92 -457,76 -54,-15 -21,-172 -66,-282 -45,-110 -162,-6 -286,11 -124,18 -341,4 -440,-57 -100,-62 255,-251 233,-361 -22,-109 -52,-203 -51,-250 1,-48 125,-73 187,-81 62,-9 332,89 509,79 178,-11 -16,-201 16,-296 32,-95 218,-97 280,-114 62,-17 663,-295 602,-365 -61,-70 -73,-282 -111,-321 -38,-39 198,-249 215,-359 17,-111 -184,-170 -238,-217 -53,-46 -128,-234 -150,-328 -22,-94 470,-254 402,-411 -67,-156 -145,-123 -199,-193 -53,-69 156,-524 94,-546 -62,-22 -213,-27 -321,-72 -108,-44 -168,-205 -143,-324 25,-118 118,-385 26,-438 -93,-53 -290,79 -305,32 -15,-47 -122,-171 -160,-248 -37,-78 -130,-713 -232,-695 -101,19 -275,181 -352,112 -77,-68 -160,-263 -253,-299 -94,-37 -268,220 -338,213 -71,-5 -124,-87 -146,-180 -23,-94 -131,-467 -225,-488 -93,-20 -263,169 -302,139 -38,-31 42,-174 -44,-203 -86,-29 -337,151 -415,130 -78,-21 -330,205 -400,144 -69,-60 -82,-318 -168,-323 -86,-5 -165,114 -220,100 -54,-14 -112,-39 -112,-39z"/>
    <path class="fil2" d="M7947 784c80,-40 228,-239 310,-206 64,25 124,124 179,206 -163,0 -326,0 -489,0z"/>
    <path class="fil2" d="M8810 784c19,-9 37,-15 53,-19 12,-2 24,5 35,19 -29,0 -58,0 -88,0z"/>
    <path class="fil2" d="M9163 5600c1,33 -17,56 -76,60 -116,6 -272,-33 -383,-59 158,0 312,-1 459,-1z"/>
    <path class="fil2" d="M6826 10702c-2,21 -10,41 -26,57 -47,48 -281,2 -461,-57 164,0 326,0 487,0z"/>
    <path class="fil2" d="M5581 10449c-5,-89 -36,-191 -105,-212 -77,-24 -223,94 -339,78 -35,-5 -58,-52 -71,-118 770,-2 1531,-3 2254,-4 -27,47 -44,79 -46,88 -5,23 -25,102 -50,164 -533,1 -1085,3 -1643,4z"/>
    <path class="fil2" d="M5056 9943c6,-89 20,-166 40,-196 11,-19 13,-38 7,-58 1127,-2 2247,-3 3271,-4 -102,89 -280,196 -388,202 -161,8 -183,-149 -267,-188 -40,-18 -140,102 -235,239 -785,1 -1607,3 -2428,5z"/>
    <path class="fil2" d="M4704 9436c-12,-9 -25,-16 -36,-23 -53,-29 36,-153 99,-231 1284,-2 2587,-3 3774,-4 -29,38 -51,68 -62,79 -26,25 -36,100 -37,172 -1187,2 -2477,4 -3738,7z"/>
    <path class="fil2" d="M4440 8929c-141,-60 -276,-117 -315,-143 -92,-61 -169,-30 -292,-13 -82,10 -130,-27 -161,-98 1854,-2 3876,-4 5614,-5 -38,85 -107,176 -132,206 -39,47 -261,-70 -307,-69 -17,0 -60,49 -113,115 -1370,2 -2869,5 -4294,7z"/>
    <path class="fil2" d="M1943 9440c-50,-20 -90,-38 -115,-54 -93,-58 -54,-125 -30,-201 445,-1 907,-1 1380,-2 -28,112 -58,196 -88,213 -108,63 -261,-107 -323,-106 -38,0 -99,76 -155,149 -227,0 -450,0 -669,1z"/>
    <path class="fil2" d="M1256 8932c-108,-31 -214,-63 -259,-82 -45,-19 -49,-89 -43,-173 707,0 1498,-1 2329,-2 -16,78 -32,167 -50,255 -704,1 -1372,1 -1977,2z"/>
    <path class="fil2" d="M978 8423c0,-26 -4,-48 -11,-65 -46,-108 -185,-91 -354,-13 -81,37 -192,-57 -289,-176 2235,-1 6007,-4 9038,-6 -26,85 -46,178 -56,251 -2801,5 -6173,9 -8328,9z"/>
    <path class="fil2" d="M156 7913c-21,-39 -34,-70 -36,-87 -6,-32 11,-94 38,-165 2099,-1 6488,-3 9857,-5 -1,28 -12,55 -43,78 -85,68 -296,153 -416,174 -3428,4 -7644,9 -9400,5z"/>
    <path class="fil2" d="M283 7404c30,-52 60,-94 84,-118 28,-29 8,-78 -34,-134 1842,0 6219,-1 9691,-2 -28,88 -72,184 -85,251 -3674,4 -8241,8 -9656,3z"/>
    <path class="fil2" d="M127 6922c-42,-48 -70,-88 -61,-110 16,-41 61,-104 111,-168 1030,0 5558,0 9383,0 47,78 99,180 144,251 -3967,6 -8849,22 -9577,27z"/>
    <path class="fil2" d="M269 6382c-52,-39 -131,-88 -180,-184 -11,-22 -16,-46 -15,-71 2830,-6 6052,-13 8224,-18 -74,69 -140,133 -89,164 99,61 316,75 440,57 124,-17 241,-121 286,-11 5,12 9,24 12,37 -2140,7 -5649,18 -8678,26z"/>
    <path class="fil2" d="M224 5874c87,-85 185,-150 221,-157 56,-12 218,-50 333,-100 2638,-6 5596,-12 7700,-16 -46,14 -87,34 -87,61 -1,38 19,106 38,189 -2287,7 -5501,16 -8205,23z"/>
    <path class="fil2" d="M2113 5106c43,28 84,55 114,75 33,22 70,-16 106,-75 2682,-6 5535,-11 7390,-15 -149,79 -309,150 -340,159 -57,15 -217,19 -269,92 -2228,6 -5431,15 -8154,21 27,-94 55,-191 105,-225 94,-63 604,175 697,127 47,-24 91,-95 122,-159 76,0 153,0 229,0z"/>
    <path class="fil2" d="M2446 4852c14,-36 24,-64 31,-77 12,-24 37,-97 64,-178 2610,-5 5429,-9 7345,-12 23,52 38,170 69,248 -1975,5 -4880,13 -7509,19z"/>
    <path class="fil2" d="M2622 4343c8,-23 12,-38 12,-38 0,0 310,13 434,-20 59,-16 80,-103 86,-198 2410,-3 4989,-7 6850,-10 52,34 93,75 84,128 -5,33 -30,77 -62,121 -2033,6 -4876,12 -7404,17z"/>
    <path class="fil2" d="M3060 3326c59,-50 120,-108 153,-175 15,-28 18,-55 13,-80 2226,-2 4714,-5 6685,-7 53,60 127,35 192,185 10,22 8,43 -1,64 -2076,5 -4739,10 -7042,13z"/>
    <path class="fil2" d="M3048 2818c-4,-11 -5,-23 -4,-35 16,-109 -61,-154 33,-202 9,-5 19,-11 28,-18 2214,-2 4781,-4 6859,-6 1,54 -22,154 -42,251 -2116,3 -4699,8 -6874,10z"/>
    <path class="fil2" d="M3254 2310c3,-59 -77,-162 -154,-255 2014,-1 4398,-3 6449,-4 -6,24 -11,45 -15,63 -13,59 -4,128 20,188 -2025,3 -4352,6 -6300,8z"/>
    <path class="fil2" d="M3388 1547c183,21 418,102 472,100 35,0 91,-46 144,-100 1629,-1 3461,-2 5144,-3 44,64 97,132 107,164 15,47 212,-84 305,-32 32,19 42,64 39,119 -2196,3 -4686,6 -6636,7 35,-72 135,-160 228,-231 15,-12 36,-20 61,-24 45,0 90,0 136,0z"/>
    <path class="fil2" d="M4134 1293c13,-80 49,-194 119,-231 15,-7 35,-15 57,-23 1471,-1 3123,-1 4683,-1 22,84 42,175 59,252 -1658,2 -3409,3 -4918,3z"/>
    <path class="fil2" d="M4939 786c22,-63 -2,-168 10,-255 892,0 1847,0 2803,0 10,34 18,62 22,80 19,80 61,151 117,173 -1014,1 -2022,1 -2952,2z"/>
    <path class="fil2" d="M3141 3853c-21,-40 -40,-95 -95,-157 -22,-24 -67,-68 -71,-93 2225,-3 4768,-1 6739,-3 13,27 -49,13 16,164 9,21 37,68 28,89 -2077,5 -4313,-3 -6617,0z"/>
    <polygon class="fil3" points="3706,5485 3496,5072 3013,5396 3254,5930 3841,6882 4455,7855 5209,8539 6496,9901 6965,9585 5908,8452 4886,7571 4233,6525 "/>
    <polygon class="fil3" points="3952,5314 2702,6194 1796,6422 1103,6313 1093,7226 1693,8023 2384,8470 3196,6942 4199,6304 4610,6133 4365,5601 "/>
    <path class="fil4" d="M3433 5626c0,0 -429,347 -949,537 -520,190 -1471,17 -1471,17 0,0 -106,531 158,1273 264,740 1340,1192 1340,1192 0,0 283,-829 524,-1173 241,-345 920,-823 1141,-938 220,-114 739,-357 739,-357 0,0 -65,-348 -308,-668 -242,-319 -550,-433 -550,-433l-355 304 262 169 108 -95c0,0 195,110 293,244 99,133 146,314 146,314 0,0 -285,171 -605,345 -324,177 -702,448 -1029,838 -331,393 -542,956 -542,956 0,0 -516,-211 -784,-655 -264,-447 -219,-939 -219,-939 0,0 734,75 1314,-147 580,-222 1044,-641 1044,-641l-257 -143z"/>
    <polygon class="fil4" points="3765,5330 3310,5732 3392,5879 3622,5812 3988,5515 3935,5300 "/>
    <polygon class="fil4" points="3895,5453 3578,4955 2916,5355 3223,5918 3430,5732 3215,5445 3470,5295 3648,5554 "/>
    <path class="fil4" d="M4378 6258c0,0 227,652 528,1030 302,378 923,796 1491,1301 569,504 844,1048 844,1048l-691 554c0,0 -461,-739 -850,-1124 -389,-386 -976,-772 -1372,-1286 -397,-514 -653,-1194 -653,-1194l239 -133c0,0 326,852 674,1253 347,401 954,847 1269,1140 314,293 759,873 759,873l211 -170c0,0 -410,-561 -770,-859 -361,-298 -1128,-933 -1369,-1296 -241,-363 -568,-1020 -568,-1020l258 -117z"/>
    <path class="fil5" d="M5586 4565c0,0 168,1750 93,2138 -74,387 -752,1491 -752,1491l146 317 819 -403 395 932 400 23 91 -763 806 399 324 -270 -754 -775 -205 -881 -806 -387 79 -212 758 -270 -20 -1022 -736 -411 -638 94z"/>
    <path class="fil6" d="M5184 4718l456 -118 555 153 339 -70c0,0 241,352 664,328 422,-23 673,-422 673,-422 0,0 708,164 950,-106 241,-270 311,-916 178,-1104 -133,-188 -416,-293 -416,-293 0,0 334,-966 -59,-1399 -392,-433 -1287,-222 -1287,-222 0,0 -401,-670 -1046,-635 -645,36 -1003,999 -1003,999 0,0 -984,141 -1280,610 -297,470 -40,987 -40,987l502 458c0,0 -120,493 153,669 274,177 661,165 661,165z"/>
    <path class="fil7" d="M7836 3930c164,0 295,-133 292,-298 -3,-164 -139,-298 -304,-298 -164,0 -295,134 -292,298 3,165 139,298 304,298z"/>
    <path class="fil8" d="M5530 4602c0,0 260,251 593,234 332,-18 661,-224 661,-224l-303 -77c0,0 -107,113 -392,105 -285,-8 -453,-113 -453,-113l-106 75z"/>
    <path class="fil8" d="M6789 5227c55,13 124,31 172,43 23,392 42,731 42,731l-689 327 -88 105 838 217c0,0 44,560 132,864 89,303 842,946 842,946l-458 366 -743 -483 -95 822 -490 -88 -273 -735 268 -160 172 732 163 20 43 -743 232 -10 674 333 229 -71c0,0 -648,-559 -707,-784 -59,-225 -130,-749 -130,-749l-858 -428 -2 -337c0,0 741,-256 761,-264 8,-4 -33,-309 -35,-654z"/>
    <path class="fil8" d="M4889 8053c0,0 278,-323 474,-698 195,-376 226,-945 260,-1674 9,-214 -19,-588 -22,-808l367 105c12,158 -11,656 -30,895 -53,690 -189,1316 -379,1612 -190,297 -556,772 -556,772l142 77 953 -437 175 113 -1284 678 -224 -503 124 -132z"/>
    <path class="fil7" d="M5519 4220c195,0 351,-158 347,-353 -4,-196 -165,-355 -361,-355 -195,0 -351,159 -347,355 4,195 165,353 361,353z"/>
    <path class="fil7" d="M7812 2635c115,0 207,-94 205,-209 -3,-115 -98,-208 -213,-208 -115,0 -206,93 -204,208 2,115 97,209 212,209z"/>
    <path class="fil7" d="M6384 2347c176,0 316,-143 313,-319 -4,-176 -149,-318 -325,-318 -175,0 -316,142 -312,318 3,176 149,319 324,319z"/>
    <path class="fil8" d="M6598 3588c159,0 286,-130 283,-289 -3,-159 -135,-289 -294,-289 -159,0 -286,130 -283,289 3,159 135,289 294,289z"/>
    <path class="fil7" d="M6569 3407c75,0 135,-61 133,-136 -1,-75 -63,-136 -138,-136 -75,0 -135,61 -134,136 2,75 64,136 139,136z"/>
    <path class="fil7" d="M4948 2814c102,0 182,-82 180,-183 -1,-101 -85,-184 -186,-184 -102,0 -182,83 -180,184 2,101 86,183 186,183z"/>
    <path class="fil8" d="M7775 4059c-213,0 -390,-174 -394,-387 -4,-214 166,-387 380,-387 122,0 232,56 305,145 -60,28 -139,65 -195,91 -34,-25 -75,-40 -120,-40 -109,0 -197,89 -195,198 2,110 93,199 202,199 109,0 197,-89 195,-199 -1,-28 -8,-55 -19,-80 56,-15 142,-38 198,-53 14,39 22,82 24,126 3,213 -167,387 -381,387z"/>
    <path class="fil8" d="M7787 2681c-181,0 -330,-146 -334,-327 -3,-180 141,-327 321,-327 144,0 269,94 315,224 -61,13 -134,29 -184,39 -31,-38 -79,-63 -132,-63 -93,0 -166,75 -164,167 1,93 78,168 170,168 93,0 166,-75 164,-168 0,-6 0,-11 -1,-17 51,-5 113,-12 166,-17 0,178 -143,321 -321,321z"/>
    <path class="fil8" d="M5456 4254c-249,0 -456,-203 -461,-452 -5,-250 194,-453 444,-453 250,0 456,203 461,453 2,113 -38,216 -105,296 -26,-63 -56,-133 -79,-188 17,-32 27,-70 26,-110 -2,-127 -108,-231 -236,-231 -128,0 -229,104 -227,231 2,128 108,232 236,232 33,0 65,-7 93,-20 15,60 33,133 49,195 -61,30 -129,47 -201,47z"/>
    <path class="fil8" d="M4974 2834c-25,0 -48,-4 -70,-11 9,-37 21,-89 30,-127 15,8 31,11 48,11 58,0 105,-47 104,-106 -1,-58 -50,-106 -108,-106 -59,0 -106,48 -105,106 1,19 6,36 14,51 -18,31 -46,81 -69,121 -45,-42 -73,-100 -74,-165 -3,-125 97,-226 221,-226 125,0 228,101 230,226 3,124 -97,226 -221,226z"/>
    <path class="fil8" d="M6354 2475c-216,0 -396,-176 -400,-393 -4,-216 169,-392 385,-392 31,0 62,4 92,11 -14,63 -34,151 -46,203 -1,0 -2,0 -3,0 -111,0 -199,91 -197,201 2,111 94,201 205,201 110,0 198,-90 197,-201 -2,-81 -52,-152 -123,-183 27,-44 69,-111 101,-161 103,70 171,188 174,321 4,217 -169,393 -385,393z"/>
    <polygon class="fil8" points="7380,6850 8196,7357 7692,7525 7327,7259 "/>
    <polygon class="fil8" points="8449,7612 9277,6684 9375,7336 8878,7781 "/>
    <polygon class="fil8" points="7820,7769 8467,8137 8124,8265 7878,7985 "/>
    <polygon class="fil5" points="7509,7038 7484,7223 7728,7389 7929,7314 "/>
    <polygon class="fil5" points="8690,7553 9140,7059 9272,7190 8896,7611 "/>
    <polygon class="fil5" points="8049,8012 8187,8155 8266,8123 8109,8012 "/>
    <polygon class="fil9" points="5670,7542 5784,7684 5453,7976 5453,7890 "/>
    <path class="fil9" d="M6059 5269c48,1 145,4 220,6 21,225 45,481 45,481l-288 102c0,0 12,-320 23,-589z"/>
    <path class="fil9" d="M6073 4902l175 43c0,0 9,98 21,225 -66,6 -155,14 -207,18 6,-160 11,-286 11,-286z"/>
    <path class="fil8" d="M6859 7908c49,-32 109,-71 145,-94 68,62 188,169 188,169l-86 74c0,0 -150,-90 -247,-149z"/>
    <path class="fil8" d="M6886 7383c0,0 73,302 94,387 -44,20 -124,58 -183,85 -29,-75 -121,-311 -121,-311l210 -161z"/>
    <path class="fil9" d="M5879 1426c27,36 73,97 110,146 -28,25 -56,55 -78,89 -93,142 -49,300 -49,300l-324 32c0,0 -48,-141 119,-395 51,-77 207,-164 222,-172z"/>
    <path class="fil9" d="M6152 1321l70 184c0,0 -93,0 -154,27 -39,-39 -88,-111 -123,-145 112,-58 207,-66 207,-66z"/>
    <path class="fil9" d="M4164 3229c0,0 -6,159 173,279 178,120 300,77 300,77l23 -74c0,0 -145,-56 -215,-127 -70,-71 -84,-196 -84,-196l-197 41z"/>
    <path class="fil8" d="M8709 3917c0,0 6,161 -201,309 -208,149 -428,65 -428,65l162 -204c0,0 111,25 204,-22 93,-46 136,-151 136,-151l127 3z"/>
    <path class="fil8" d="M8334 1925c61,-68 149,-168 216,-243 94,76 177,169 239,282 396,718 -80,1121 -80,1121 0,0 798,340 491,1161 -307,820 -1297,410 -1297,410 0,0 -176,476 -650,499 -473,23 -618,-326 -618,-326l319 -157c0,0 221,267 479,157 259,-109 401,-389 401,-389l58 6c0,0 592,345 915,-293 323,-637 -305,-961 -305,-961l-91 -54c0,0 356,-546 64,-1030 -42,-71 -90,-131 -141,-183z"/>
    <path class="fil8" d="M8008 1712c58,-68 135,-159 195,-230 60,24 118,51 174,82 -48,76 -113,177 -165,258 -67,-47 -136,-83 -204,-110z"/>
    <path class="fil8" d="M5330 4739c0,0 -441,165 -885,-112 -443,-277 -235,-698 -235,-698 0,0 -789,-350 -614,-1221 176,-870 1367,-887 1367,-887 0,0 137,-1002 1011,-1093 873,-91 1224,604 1224,604 0,0 453,-33 893,110 -63,75 -137,163 -194,231 -169,-49 -315,-54 -371,-66 -120,-27 -374,30 -374,30l-68 -38c0,0 -19,-393 -529,-606 -511,-214 -893,124 -1050,332 -157,206 -190,797 -190,797l-23 25c0,0 -841,-108 -1191,337 -350,446 -171,929 -6,1083 164,155 407,272 407,272l30 182c0,0 -152,260 177,454 327,193 630,159 630,159l-9 105z"/>
   </g>
  </g>
 </g>
</svg>
