<?xml version="1.0" encoding="UTF-8"?>
<!DOCTYPE svg PUBLIC "-//W3C//DTD SVG 1.1//EN" "http://www.w3.org/Graphics/SVG/1.1/DTD/svg11.dtd">
<!-- Creator: CorelDRAW -->
<svg xmlns="http://www.w3.org/2000/svg" xml:space="preserve" width="122.828mm" height="95.0488mm" version="1.1" style="shape-rendering:geometricPrecision; text-rendering:geometricPrecision; image-rendering:optimizeQuality; fill-rule:evenodd; clip-rule:evenodd"
viewBox="0 0 12283 9505"
 xmlns:xlink="http://www.w3.org/1999/xlink">
 <defs>
  <style type="text/css">
   <![CDATA[
    .fil3 {fill:#FFE166;fill-rule:nonzero}
    .fil5 {fill:#FFDC4D;fill-rule:nonzero}
    .fil6 {fill:#F57676;fill-rule:nonzero}
    .fil7 {fill:#E1EEFD;fill-rule:nonzero}
    .fil0 {fill:#D9DEFF;fill-rule:nonzero}
    .fil1 {fill:#C0CAFF;fill-rule:nonzero}
    .fil4 {fill:#64B864;fill-rule:nonzero}
    .fil9 {fill:black;fill-rule:nonzero}
    .fil2 {fill:#999999;fill-rule:nonzero}
    .fil8 {fill:#B2B2B2;fill-rule:nonzero}
   ]]>
  </style>
 </defs>
 <g id="Layer_x0020_1">
  <metadata id="CorelCorpID_0Corel-Layer"/>
  <g id="vc012699.ai">
   <g>
    <g>
     <path class="fil0" d="M7609 1222c0,0 -2513,-971 -4522,-541 -2009,429 -3479,2236 -2994,3375 485,1139 2911,1575 3280,2325 369,750 -1325,1806 -350,2484 975,677 4622,974 6846,95 2225,-879 3033,-2935 1911,-4649 -1122,-1715 -4171,-3089 -4171,-3089z"/>
     <polygon class="fil1" points="6740,6858 6686,6334 6598,6858 6325,6732 6535,6977 6319,7198 6598,7068 6700,7466 6763,7074 7064,7153 6820,6960 6985,6721 "/>
     <polygon class="fil1" points="3795,1397 3633,680 3505,1397 3130,1269 3445,1602 3061,2028 3548,1858 3744,2361 3812,1824 4239,1900 3932,1585 4119,1252 "/>
     <g>
      <path class="fil1" d="M8213 6331c0,0 -100,94 -154,85 -54,-10 -63,-122 -70,-225 -7,-103 -13,-197 42,-252 54,-56 168,-74 210,0 43,73 14,238 14,238l2356 2567c0,0 0,-204 141,-239 140,-35 105,7 161,189 56,183 44,299 -14,414 -59,116 -120,166 -175,98 -56,-67 -99,-322 -99,-322l-2412 -2553z"/>
      <polygon class="fil1" points="8430,8821 10212,6633 10310,6717 8501,8905 "/>
      <polygon class="fil1" points="9314,6857 9524,8512 9637,8498 9440,6885 "/>
      <path class="fil1" d="M8304 7643c0,0 -96,-206 -168,-225 -72,-18 -119,95 -126,211 -7,115 26,232 84,280 58,48 141,26 182,-28 42,-54 42,-140 42,-140l1767 0c0,0 -24,96 29,126 52,30 80,46 154,14 73,-31 73,-105 70,-182 -4,-77 -11,-158 -56,-211 -45,-52 -127,-76 -168,-27 -42,47 -43,168 -43,168l-1767 14z"/>
     </g>
     <g>
      <polygon class="fil2" points="1335,5712 619,5792 603,6381 1335,6158 "/>
      <path class="fil3" d="M1606 2655c0,0 971,-334 2308,-558 1338,-222 3042,-334 3042,-334l-526 3997 -5095 398 271 -3503z"/>
      <path class="fil4" d="M7051 5696l302 -3105c0,0 633,-310 1290,-398 657,-87 1338,47 1338,47l223 1354c0,0 338,-123 795,-80 458,44 1035,255 1035,255l-143 1815c0,0 -1385,-139 -2595,-111 -1210,27 -2245,223 -2245,223z"/>
      <path class="fil5" d="M11939 4359c0,0 -479,-101 -764,-64 -286,36 -377,208 -366,366 10,158 121,302 398,334 276,32 716,-47 716,-47l16 -589z"/>
      <polygon class="fil6" points="8261,2209 8166,1572 8611,1365 9073,1445 9025,2161 8659,2273 "/>
      <path class="fil7" d="M7879 3833c0,0 489,-107 955,-143 466,-36 908,0 908,0l-80 -1004c0,0 -545,-55 -1003,0 -458,56 -828,224 -828,224l48 923z"/>
      <path class="fil4" d="M1494 3833c0,0 1107,-342 2420,-493 1314,-152 2834,-112 2834,-112l-111 1099c0,0 -1377,-48 -2675,111 -1298,159 -2515,526 -2515,526l47 -1131z"/>
      <path class="fil8" d="M10363 5983c0,0 -361,162 -526,382 -165,220 -137,493 32,700 169,207 473,346 732,319 259,-28 472,-223 574,-446 101,-224 91,-476 0,-637 -92,-161 -266,-231 -446,-271 -180,-39 -366,-47 -366,-47z"/>
      <path class="fil8" d="M1701 6460c0,0 -360,163 -525,382 -165,220 -137,494 32,701 168,207 473,346 732,318 259,-28 472,-222 573,-445 102,-224 92,-476 0,-638 -92,-160 -266,-231 -446,-270 -180,-39 -366,-48 -366,-48z"/>
      <g>
       <g>
        <path class="fil9" d="M1217 2379c0,0 1331,-443 2733,-673 1402,-229 2876,-244 2876,-244 0,0 -352,3182 -469,4242 0,0 -1402,36 -2754,143 -1351,108 -2652,285 -2652,285l102 -204c0,0 1273,-208 2543,-280 1269,-71 2611,-64 2611,-64l414 -3980c0,0 -1349,69 -2675,303 -1326,235 -2643,653 -2643,653l-86 -181z"/>
        <polygon class="fil9" points="1217,2379 951,6132 1128,5999 1441,2400 "/>
        <path class="fil9" d="M1201 3539c0,0 1305,-412 2631,-570 1326,-159 2672,-62 2672,-62l-2 170c0,0 -1354,-96 -2660,72 -1305,168 -2659,581 -2659,581l18 -191z"/>
        <path class="fil9" d="M1176 4685c0,0 1305,-414 2631,-572 1326,-158 2672,-61 2672,-61l-25 171c0,0 -1314,-104 -2619,64 -1306,169 -2683,574 -2683,574l24 -176z"/>
        <polygon class="fil9" points="951,6132 238,6336 279,5500 1115,5439 1094,5684 564,5786 543,5990 1176,5867 "/>
        <path class="fil9" d="M7030 2339l-367 3345c0,0 1326,-209 2591,-245 1264,-36 2468,102 2468,102l183 -2122c0,0 -566,-132 -1081,-163 -515,-30 -868,-28 -868,-28l32 215c0,0 393,-36 836,-16 444,21 908,143 908,143l-136 1800c0,0 -1178,-150 -2340,-120 -1163,31 -2388,231 -2388,231l302 -3080 -140 -62z"/>
        <path class="fil9" d="M7030 2339c0,0 760,-291 1469,-388 709,-97 1367,0 1367,0l265 1448 -143 44 -278 -1345c0,0 -590,-40 -1186,32 -597,71 -1354,271 -1354,271l-87 119 -53 -181z"/>
        <path class="fil9" d="M7887 2135l-92 -796c0,0 271,-204 520,-234 250,-31 602,71 602,71l-30 815 -125 19 -63 -685c0,0 -224,-75 -367,-39 -142,36 -374,111 -374,111l56 733 -127 5z"/>
        <path class="fil9" d="M7469 2655c0,0 408,-158 918,-225 510,-66 1122,-41 1122,-41l122 1225c0,0 -566,-36 -1101,9 -536,47 -1041,174 -1041,174l39 -146c0,0 547,-112 996,-168 448,-56 931,-16 931,-16l-88 -932c0,0 -543,-20 -987,57 -443,76 -852,183 -852,183l-59 -120z"/>
        <polygon class="fil9" points="7469,2655 7489,3797 7693,3614 7653,2736 "/>
        <path class="fil9" d="M11640 4072c0,0 -594,-160 -958,0 -364,160 -311,625 0,786 311,160 958,30 958,30l-20 -224c0,0 -541,91 -826,10 -285,-81 -210,-341 112,-408 322,-67 734,31 734,31l0 -225z"/>
        <g>
         <path class="fil9" d="M1513 6235c0,0 438,-103 714,204 275,305 205,523 132,795 -73,272 -287,463 -550,510 -264,47 -588,0 -816,-184 -229,-183 -320,-525 -215,-775 106,-249 337,-418 337,-418l112 137c0,0 -224,199 -270,358 -47,160 17,449 171,570 153,121 460,163 636,131 178,-32 346,-162 422,-330 77,-168 99,-493 -95,-677 -194,-183 -573,-151 -573,-151l-5 -170z"/>
         <path class="fil9" d="M1115 6367c0,0 79,-48 178,-82 100,-33 220,-50 220,-50l188 107 -120 55c0,0 -158,22 -215,40 -56,17 -119,56 -119,56l-117 58 -15 -184z"/>
        </g>
        <polygon class="fil9" points="7597,1005 7215,676 7025,814 7488,1123 "/>
        <polygon class="fil9" points="7479,3899 7473,4096 8229,3961 8214,3838 "/>
        <g>
         <path class="fil9" d="M10158 5788c0,0 439,-101 714,204 275,307 206,524 133,796 -73,272 -287,463 -551,510 -264,47 -588,0 -816,-184 -228,-183 -320,-525 -214,-775 105,-249 336,-418 336,-418l113 138c0,0 -224,199 -271,358 -46,159 18,448 171,569 154,121 460,163 637,132 177,-32 346,-163 422,-331 76,-167 98,-493 -95,-677 -194,-183 -574,-151 -574,-151l-5 -171z"/>
         <path class="fil9" d="M9760 5921c0,0 79,-48 179,-81 99,-33 219,-52 219,-52l189 108 -120 55c0,0 -159,22 -215,39 -56,19 -119,57 -119,57l-117 58 -16 -184z"/>
        </g>
        <polygon class="fil9" points="8073,681 8006,56 7709,201 7918,717 "/>
        <polygon class="fil9" points="9270,1025 9654,613 9422,441 9146,925 "/>
        <polygon class="fil9" points="8721,598 9017,56 8804,0 8586,512 "/>
       </g>
       <path class="fil9" d="M1596 7262c159,0 288,-130 288,-288 0,-159 -129,-287 -288,-287 -159,0 -288,128 -288,287 0,158 129,288 288,288z"/>
       <path class="fil9" d="M10242 6800c158,0 287,-129 287,-288 0,-159 -129,-287 -287,-287 -159,0 -288,128 -288,287 0,159 129,288 288,288z"/>
      </g>
     </g>
     <g>
      <path class="fil1" d="M5103 6543c0,0 64,59 98,53 34,-6 40,-78 44,-142 5,-66 8,-125 -26,-160 -34,-36 -106,-47 -134,0 -26,46 -8,151 -8,151l-1492 1625c0,0 0,-129 -89,-151 -89,-22 -66,4 -102,120 -36,115 -29,188 9,262 37,73 76,105 111,62 35,-43 62,-204 62,-204l1527 -1616z"/>
      <polygon class="fil1" points="4966,8119 3838,6733 3776,6787 4921,8172 "/>
      <polygon class="fil1" points="4406,6876 4273,7923 4202,7914 4326,6893 "/>
      <path class="fil1" d="M5046 7373c0,0 61,-131 106,-142 46,-12 76,60 80,133 4,73 -16,147 -53,178 -37,30 -89,16 -116,-18 -26,-35 -26,-89 -26,-89l-1119 0c0,0 15,60 -18,79 -33,20 -51,30 -98,10 -46,-20 -47,-67 -44,-116 2,-49 7,-100 36,-133 28,-33 80,-48 106,-18 26,31 27,107 27,107l1119 9z"/>
     </g>
    </g>
   </g>
  </g>
 </g>
</svg>
