<?xml version="1.0" encoding="UTF-8"?>
<!DOCTYPE svg PUBLIC "-//W3C//DTD SVG 1.1//EN" "http://www.w3.org/Graphics/SVG/1.1/DTD/svg11.dtd">
<!-- Creator: CorelDRAW -->
<svg xmlns="http://www.w3.org/2000/svg" xml:space="preserve" width="115.566mm" height="96.683mm" version="1.1" style="shape-rendering:geometricPrecision; text-rendering:geometricPrecision; image-rendering:optimizeQuality; fill-rule:evenodd; clip-rule:evenodd"
viewBox="0 0 11557 9668"
 xmlns:xlink="http://www.w3.org/1999/xlink">
 <defs>
  <style type="text/css">
   <![CDATA[
    .fil2 {fill:black;fill-rule:nonzero}
    .fil0 {fill:black;fill-rule:nonzero}
    .fil1 {fill:black;fill-rule:nonzero}
   ]]>
  </style>
 </defs>
 <g id="Layer_x0020_1">
  <metadata id="CorelCorpID_0Corel-Layer"/>
  <g id="vc076086.ai">
   <g>
    <path class="fil0" d="M2843 3258c-1013,0 -1621,61 -1864,92 114,-590 401,-1837 683,-2110 248,-239 662,-405 965,-385 87,6 205,31 272,115 145,182 -67,1328 -264,2084l169 44c83,-318 483,-1920 231,-2237 -84,-106 -222,-168 -397,-179 -352,-23 -813,159 -1097,433 -405,391 -741,2244 -755,2323l-22 122 122 -21c7,-1 647,-107 1957,-107 1316,0 2287,85 2297,86l15 -174c-9,-1 -989,-86 -2312,-86z"/>
    <path class="fil1" d="M743 3637c-248,-73 -600,-251 -566,-399 8,-34 25,-58 54,-75 120,-70 380,-13 462,12l51 -166c-39,-12 -393,-116 -600,3 -71,41 -119,106 -137,187 -71,311 412,511 611,580 -31,161 -103,557 -155,991 -68,566 -34,1362 -32,1396l174 -8c0,-8 -36,-816 31,-1368 66,-554 167,-1047 168,-1052l16 -79c0,0 -77,-22 -77,-22z"/>
    <path class="fil2" d="M213 6306c-8,34 -196,821 54,1301 251,482 1762,671 1934,691l20 -173c-441,-51 -1623,-259 -1800,-599 -220,-422 -40,-1171 -39,-1178l-169 -42z"/>
    <path class="fil2" d="M1830 7296c-17,110 -59,478 107,595 145,100 1018,169 1281,188l13 -174c-513,-37 -1116,-107 -1194,-157 -52,-36 -61,-255 -35,-426l-172 -26z"/>
    <path class="fil2" d="M5887 188c687,-13 2521,-33 2756,29 212,67 1821,1773 2785,2833l129 -117c-425,-467 -2562,-2803 -2869,-2884 -302,-80 -2549,-39 -2804,-34l3 173z"/>
    <path class="fil2" d="M5602 1071l0 -1c0,4 87,379 63,862 -25,491 -224,1598 -226,1610l171 31c8,-46 203,-1130 228,-1632 26,-509 -63,-894 -67,-910l-169 40z"/>
    <path class="fil2" d="M5274 3668c-8,20 -180,508 -195,1236 -16,720 47,1279 47,1284l173 -19c0,-6 -62,-553 -46,-1261 15,-698 183,-1177 185,-1182l-164 -58z"/>
    <path class="fil2" d="M8233 490l-92 1686c-47,799 62,1733 64,1742l172 -20c-1,-9 -108,-928 -62,-1712l92 -1687 -174 -9z"/>
    <path class="fil2" d="M6605 9495c-194,-21 -729,-103 -879,-231 -147,-124 -224,-441 -241,-552l-172 26c3,18 73,467 300,659 218,185 896,263 973,271l19 -173z"/>
    <path class="fil2" d="M9213 7336c14,61 88,366 262,426 146,51 453,38 487,36l-8 -174c-84,4 -325,7 -422,-27 -53,-18 -121,-171 -148,-298l-171 37z"/>
    <path class="fil2" d="M6366 8126c-4,21 -98,525 100,971 203,456 481,552 493,555l52 -173 1 1c-9,-4 -220,-82 -387,-459 -175,-394 -89,-855 -89,-860l-170 -35z"/>
    <path class="fil2" d="M1349 8302c4,12 101,294 348,435 235,134 784,166 807,168l10 -174c-147,-8 -565,-51 -731,-145 -188,-108 -269,-337 -270,-340l-164 56z"/>
    <path class="fil2" d="M3398 8400c0,0 -119,471 -560,424 -441,-47 -475,-581 -475,-581 0,0 289,126 475,126 186,0 560,31 560,31z"/>
    <path class="fil2" d="M4685 6728c-14,1 -1293,44 -1724,13 -343,-24 -786,-91 -958,-119 1,-223 7,-900 46,-1283 46,-462 170,-1148 171,-1155l-171 -31c-1,7 -127,699 -174,1169 -47,469 -47,1337 -46,1375l0 73 72 12c6,1 607,101 1047,133 441,31 1690,-11 1743,-13l-6 -174z"/>
    <path class="fil2" d="M2069 4326c5,0 517,-63 791,-63 268,0 789,138 794,139l45 -168c-22,-6 -548,-145 -839,-145 -285,0 -790,62 -812,64l21 173z"/>
    <path class="fil2" d="M1665 6687l-5 -74 -74 -7c-3,-1 -314,-32 -591,-78 -270,-45 -613,-176 -616,-178l-63 163c15,6 362,138 651,187 200,33 417,59 527,71 11,254 -5,497 -37,569 -45,-7 -104,-12 -172,-18 -127,-11 -464,-41 -508,-101 -39,-92 -55,-344 -55,-481l-173 0c0,40 1,399 70,553 63,140 309,172 651,203 74,6 144,12 181,20 41,8 81,-3 113,-31 124,-108 116,-546 101,-798z"/>
    <path class="fil2" d="M3792 7149c-5,127 -10,551 117,679 124,123 725,118 977,110l-5 -174c-358,11 -785,-11 -850,-61 0,0 0,1 1,1 -48,-49 -74,-328 -66,-549l-174 -6z"/>
    <path class="fil2" d="M4483 7183c203,-17 523,0 599,94 80,97 57,420 14,618l171 36c19,-93 110,-569 -50,-764 -161,-198 -652,-166 -749,-157l15 173z"/>
    <path class="fil2" d="M2625 5174c48,45 171,187 161,306 -10,128 -190,191 -192,192l-5 1c-1,0 -5,3 -5,3l65 161c12,-4 290,-100 311,-343 19,-224 -192,-425 -217,-447l-118 127z"/>
    <path class="fil2" d="M3463 4720c-1,6 -48,616 -63,880 -16,267 -16,785 -16,807l174 0c0,-6 0,-535 16,-796 15,-264 62,-872 62,-878l-173 -13z"/>
    <path class="fil2" d="M3212 3101c43,-512 210,-1897 463,-2162 219,-229 1257,-211 1860,-147l18 -173c-168,-18 -1654,-166 -2004,200 -340,357 -494,2072 -510,2267l173 15z"/>
    <path class="fil2" d="M5657 244c-40,-9 -1003,-221 -2352,-80 -1365,143 -1855,617 -1875,638l123 123 0 0c4,-5 475,-453 1770,-588 1321,-138 2287,75 2296,77l38 -170z"/>
    <path class="fil2" d="M8665 447c-117,31 -171,960 -196,1892l396 0 0 17 48 2c-1,13 -58,1311 -75,2087 -17,773 40,1798 40,1808l-174 10c0,-11 -57,-1042 -40,-1822 14,-662 58,-1703 71,-2006l-269 0c-23,923 -18,1819 -18,1819 0,0 -335,-79 -471,-440 -25,-68 -45,-194 -59,-353l-340 0c0,7 0,12 -1,14l-173 -12c0,-12 83,-1185 2,-1545 -72,-323 -503,-468 -507,-469l0 0 54 -166c21,7 529,176 623,597 70,313 30,1142 10,1465l323 0c-50,-705 -26,-1871 -26,-1871 0,0 -1029,-831 -1554,-988 -526,-157 -581,-188 -581,-188 0,0 193,328 261,1067 33,364 8,772 -25,1090l229 0c9,-126 22,-380 15,-705 -11,-470 -101,-929 -102,-934l171 -34c4,20 94,479 104,964 11,482 -20,801 -21,815l-89 -10 0 20 -320 0c-31,264 -64,443 -64,443 0,0 825,-298 893,189 68,487 -1023,366 -1023,366 0,0 -278,764 -294,1345 -12,394 27,978 54,1314l334 0c-18,-237 -53,-775 -53,-1259 0,-653 159,-1076 166,-1093l163 63c-2,3 -155,409 -155,1030 0,632 62,1360 62,1367l-53 5 0 42 -451 0c6,68 9,109 9,109 0,0 -424,15 -424,204 0,189 391,191 391,191 0,0 4,28 10,76l302 0c-3,-27 -4,-44 -5,-45l173 -19c3,23 64,582 -1,936 -67,373 -304,563 -314,571l-112 -134c131,-116 221,-282 255,-469 41,-226 26,-556 12,-743l-298 0c30,288 59,846 -148,973 -283,172 -2002,367 -2002,367 0,0 1305,252 1831,252 282,0 671,-109 972,-210 32,-146 105,-461 156,-582 68,-160 330,-449 330,-449l-46 868c8,-3 12,-5 12,-5 0,0 -3,108 11,257l278 0c-28,-170 -66,-530 23,-974 122,-615 340,-774 365,-791l96 146c-2,1 -184,142 -291,679 -113,568 -4,997 -3,1001l-106 28 0 27 -348 0c48,330 187,756 585,727 645,-47 645,-1491 645,-1491 0,0 281,-54 349,-164 68,-110 63,-456 63,-456 0,0 266,102 435,102 132,0 732,-257 994,-372 5,-75 12,-153 19,-199 19,-112 112,-274 112,-274 0,0 -12,162 -12,262 0,55 2,115 4,158 4,44 84,832 290,771 212,-63 221,-866 221,-866 0,0 14,756 235,709 220,-48 228,-938 228,-938 0,0 334,-147 418,-257 85,-110 87,-3179 87,-3179 0,0 -2448,-2796 -2686,-2733z"/>
    <polygon class="fil2" points="5533,6124 5559,6492 6192,6462 6121,6148 "/>
    <polygon class="fil2" points="5526,6887 5556,7129 6129,7011 6043,6799 "/>
    <polygon class="fil2" points="5996,2386 6467,2457 6428,2653 5964,2677 "/>
    <polygon class="fil2" points="7268,3297 7904,3305 7928,3541 7213,3635 "/>
    <polygon class="fil2" points="8469,2504 9043,2504 9019,2213 8461,2245 "/>
    <path class="fil2" d="M6663 8472l581 0 -15 181 -495 227c0,0 -42,-117 -56,-233 -14,-116 -15,-175 -15,-175z"/>
   </g>
  </g>
 </g>
</svg>
